<svg xmlns="http://www.w3.org/2000/svg" xmlns:xlink="http://www.w3.org/1999/xlink" width="316" height="309" viewBox="0 0 316 309"><defs><filter id="a" x="1.5" y="-2.5" width="315" height="315" filterUnits="userSpaceOnUse"><feOffset dy="5" input="SourceAlpha"/><feGaussianBlur stdDeviation="2.5" result="b"/><feFlood flood-color="#7b2d00"/><feComposite operator="in" in2="b"/><feComposite in="SourceGraphic"/></filter><clipPath id="d"><rect width="316" height="309"/></clipPath></defs><g id="c" clip-path="url(#d)"><g transform="matrix(1, 0, 0, 1, 0, 0)" filter="url(#a)"><circle cx="150" cy="150" r="150" transform="translate(9)" fill="#fff"/></g><g transform="translate(-1103.049 -1454.341)"><g transform="translate(1181.049 1527.341)"><path d="M1310.587,1613.48l.772-.386,1.159-.386.773-.386,1.159-.386,1.159-.387.772-.386,1.159-.386.773-.386,1.158-.386.773-.386,1.159-.386.772-.386,1.159-.386,1.159-.386.773-.386,1.159-.386.773-.386.773-.386v-52.919h1.545l1.545-.386,1.545-.386,1.545-.386,1.545-.386,1.931-.386,1.545-.386,1.545-.387,1.545-.386,1.545-.386,1.932-.386,1.545-.386,1.545-.386,1.545-.386,1.545-.386,1.931-.386,1.545-.386,1.545-.387,1.545-.386,1.545-.386,1.931-.386,1.545-.386,1.545-.386.772-.386,0,76.919-1.927-.437-3.09-.386-2.7-.386-2.7-.386-3.09-.386-2.7-.386-2.7-.386-2.7-.387-3.09-.386-2.7-.386-2.7-.386-3.09-.386-2.7-.386-2.7-.386-2.7-.386-3.09-.386-2.7-.387-3.09-.386-2.7-.386-2.7-.386-.773-.386h1.159Zm53.692-85.752-1.159.386-1.159.386-.772.386-1.159.386-1.159.386-.772.386-1.159.386-1.159.386-.773.386-1.159.386-1.159.386-.772.386-1.159.386-1.159.386-.772.386-1.159.386-1.159.386-.772.386-1.159.386-1.159.386-.772.386-1.159.386-1.159.386-.772.386-1.159.386-1.159.386-.772.386-1.159.386-1.159.386-.772.386-1.159.386-1.159.386-.773.386-1.159.386-1.159.386-.773.386-1.159.386-1.159.386-.773.386-1.159.386-1.158.386-.773.387-1.159.386-1.158.386-.773.386-1.159.386-1.159.386-.773.386-1.159.386-1.159.386-.773.387-1.159.386-1.159.386-.773.386-.772.386v65.28l1.158.386.773.386.772.386,1.159.386,1.159.386.773.386,1.159.386,1.159.386,1.159.386.772.386,1.159.386,1.159.387.772.386,1.159.386,1.158.386,1.159.386.773.386,1.158.386,1.159.386.773.386,1.158.386,1.159.386,1.159.386.772.386,1.159.386,1.159.386.772.386,1.159.386,1.159.386,1.159.386.772.386,1.159.386,1.159.387.772.386,1.159.386,1.159.386.772.386,1.159.386,1.159.386,1.158.386.773.386,1.158.387,1.159.386.773.386,1.158.386,1.159.386,1.159.386.772.386,1.159.387,1.159.386.772.387,1.159.386,1.159.386.773.386,1.159.386h1.931l1.545-.386,1.159-.386,1.545-.386,1.545-.386,1.159-.387,1.545-.386,1.545-.387,1.159-.386,1.545-.386,1.159-.386,1.546-.386,1.545-.386,1.159-.386,1.545-.387,1.545-.386,1.159-.386,1.545-.386,1.159-.386,1.545-.386,1.545-.386,1.159-.386,1.545-.386.386-.387v-90l-.386-.386-1.545-.386-1.159-.386-1.159-.386-1.545-.386-1.159-.386-1.545-.386-1.159-.386-1.545-.387-1.159-.386-1.545-.386-1.159-.386-1.545-.386-1.159-.386-1.545-.386-1.159-.386-1.545-.386-1.159-.386-1.159-.386-1.545-.386-1.159-.386-1.545-.386-1.545-.386-1.158-.386h-1.546l-1.159.386Z" transform="translate(-1275.857 -1527.341)" fill="#dc3d14" fill-rule="evenodd"/><path d="M1184.943,2033.337l.169-1.354.169-.677.17-.677.169-.508.169-.339.169-.508.169-.339.17-.338.169-.338.169-.169.169-.339.169-.339.169-.169.17-.169.169-.339.169-.169.169-.169.169-.169.169-.17.169-.169.169-.169.169-.169.169-.169.339-.169.169-.17.339-.169.169-.169.339-.169.339-.169.338-.169.508-.169.508-.169.508-.169,1.016-.169h2.878l.846.169.677.169.508.169.508.169.338.169.339.169.339.169.169.169.339.169.169.17.169.169.169.169.338.169.17.169.169.169.169.339.169.169.169.169.169.169.169.339.169.169.169.339.169.339.169.338.169.338.169.339.169.508.169.508.169.677.17.677.169,1.185v4.571l-.169,1.186-.17.677-.169.677-.169.508-.169.339-.169.338-.169.339-.169.339-.169.338-.169.339-.169.169-.169.338-.169.169-.169.169-.169.169-.169.339-.169.169-.17.169-.169.169-.339.169-.169.169-.169.169-.339.169-.169.169-.339.169-.339.169-.338.169-.339.17-.508.169-.677.169-.677.169-1.524.169h-1.016l-1.524-.169-.677-.169-.508-.169-.508-.169-.338-.17-.339-.169-.339-.169-.339-.169-.169-.169-.339-.169-.169-.169-.169-.169-.169-.169-.169-.169-.169-.169-.339-.169-.169-.339-.169-.169-.169-.169-.17-.169-.169-.338-.169-.169-.169-.339-.169-.338-.169-.339-.17-.339-.169-.338-.169-.339-.169-.508-.169-.508-.17-.677-.169-.677-.169-1.185Zm7.281-13.037-.847.169-.677.169-.508.169-.508.169-.508.169-.339.169-.338.169-.508.169-.169.169-.338.169-.339.169-.169.169-.339.17-.169.169-.169.169-.339.169-.169.169-.169.169-.169.169-.17.169-.169.169-.169.169-.169.169-.169.169-.169.169-.169.338-.169.169-.169.17-.169.339-.169.169-.169.338-.169.169-.169.339-.169.339-.169.339-.17.339-.169.339-.169.339-.169.508-.169.508-.169.508-.17.677-.169.677-.169,1.016-.169,1.862v2.54l.169,1.524.169,1.016.169.677.17.677.169.508.169.339.169.508.169.339.169.338.17.339.169.339.169.338.169.339.169.169.169.338.169.169.169.339.169.169.169.169.169.169.169.169.169.339.169.169.169.169.169.169.339.169.169.17.169.169.169.169.17.169.339.169.169.169.339.17.169.169.339.169.339.169.339.169.339.169.508.17.339.169.508.169.508.169.677.169,1.016.17h4.4l1.016-.17.846-.169.508-.169.508-.169.508-.169.339-.17.508-.169.339-.169.17-.169.338-.169.339-.169.17-.17.339-.169.169-.169.339-.169.169-.169.17-.169.169-.17.169-.169.169-.169.169-.169.169-.169.169-.169.169-.17.169-.169.169-.169.169-.169.169-.339.169-.169.169-.338.169-.169.17-.339.169-.17.169-.338.169-.339.169-.339.169-.338.17-.508.169-.338.169-.508.169-.508.169-.677.169-.677.169-1.016.169-1.354v-4.064l-.169-1.185-.169-.846-.169-.677-.169-.677-.169-.339-.169-.508-.169-.508-.17-.339-.169-.339-.169-.339-.169-.338-.169-.169-.169-.339-.17-.338-.169-.169-.169-.339-.169-.169-.169-.169-.169-.169-.169-.169-.169-.339-.169-.169-.169-.169-.169-.169-.169-.169-.339-.169-.169-.169-.17-.169-.169-.169-.339-.169-.169-.169-.169-.169-.339-.17-.339-.169-.169-.169-.339-.169-.339-.169-.508-.169-.339-.17-.508-.169-.508-.169-.677-.169-.677-.169-1.185-.169h-3.048Z" transform="translate(-1181.049 -1895.696)" fill="#dc3d14" fill-rule="evenodd"/><path d="M1304.16,2014.259l-.51.169-.338.169-.338.169-.338.169-.169.169-.338.172-.169.169-.169.169-.169.169-.169.169-.169.169-.169.169-.169.338-.169.169-.169.338-.172.338-.169.338-.169.339-.169.51-.169.846-.169,4.57-3.217.169v2.879h3.386v17.438h3.386v-17.438h7.79v17.438h3.386v-17.438h4.74v-2.879h-4.75l.179-4.4.169-.677.169-.338.169-.341.169-.338.169-.169.169-.169.169-.169.338-.169.338-.169.677-.169h1.187l.846.169.338.169h.508v-3.048l-.338-.169-.677-.169h-2.709l-.846.169-.508.169-.338.169-.339.169-.338.169-.169.169-.172.172-.339.169-.169.169-.169.169-.169.169-.169.169-.169.169-.169.338-.169.169-.169.338-.169.169-.169.338-.169.508-.169.51-.169.677v4.909h-7.8l.179-4.232.169-.846.169-.338.169-.341.172-.338.169-.169.169-.169.169-.169.338-.169.338-.169.677-.169h1.187l.677.169.508.169h.508v-3.048l-.338-.169-.677-.169h-2.709Z" transform="translate(-1267.25 -1891.18)" fill="#dc3d14" fill-rule="evenodd"/><path d="M1688.427,2042.133l-.17.677-.169.508-.169.339-.169.339-.169.339-.17.169-.169.338-.169.17-.169.169-.169.169-.169.169-.339.169-.169.17-.339.169-.339.169-.508.169-.677.169h-1.862l-.677-.169-.338-.169-.339-.169-.339-.169-.169-.17-.339-.169-.169-.169-.169-.169-.169-.169-.169-.17-.169-.338-.169-.169-.17-.339-.17-.17-.169-.338-.169-.339-.169-.339-.17-.508-.169-.677v-2.878l.169-.677.17-.508.169-.339.169-.339.169-.169.17-.339.17-.169.169-.169.169-.169.169-.169.169-.169.169-.169.169-.169.339-.169.339-.169.339-.169.508-.169.677-.169h2.031l.677.169.339.169.508.169.169.169.339.169.17.169.169.169.169.169.169.169.169.169.169.169.17.339.169.169.169.508.169.339.169.508.169.677.169,1.524v.169Zm-11.005-7.281Zm5.926-14.561-.677.169-.508.17-.508.169-.338.169-.339.169-.338.169-.339.169-.169.169-.339.169-.169.169-.169.169-.339.169-.169.169-.169.169-.169.169-.169.169-.169.169-.169.169-.169.169-.169.169-.169.169-.169.339-.169.169-.17.169-.169.339-.169.169-.169.339-.169.169-.169.339-.17.339-.169.339-.169.338-.169.339-.169.508-.169.339-.169.508-.169.508-.169.508-.169.677-.17.847-.169.846-.169,1.354-.169,2.54v1.524l.169,2.37.169,1.016.169,1.016.17.677.169.508.169.508.169.508.169.339.169.338.169.339.169.338.169.339.169.169.17.338.169.169.169.17.169.339.169.169.169.169.17.169.169.169.169.169.169.169.339.169.169.169.169.169.338.169.169.17.339.169.338.169.508.169.508.169.847.169h3.386l.847-.169.508-.169.508-.169.339-.169.338-.169.339-.17.339-.169.169-.169.339-.169.169-.169.169-.169.169-.169.169-.169.169-.169.169-.169.169-.169.169-.169.169-.169.169-.17.169-.338.169-.169.169-.339.169-.169.169-.338.17-.508.169-.338.169-.508.169-.338.169-.677.17-.846v-3.556l-.17-.846-.169-.508-.169-.508-.169-.508-.169-.338-.17-.339-.169-.338-.169-.169-.169-.339-.169-.169-.169-.339-.169-.169-.169-.17-.169-.169-.169-.169-.169-.169-.339-.169-.169-.17-.169-.169-.339-.169-.339-.169-.339-.169-.339-.17-.508-.169-.508-.169-.847-.169h-3.217l-.677.169-.508.169-.508.169-.339.17-.169.169-.339.169-.169.169-.338.169-.169.17-.169.169-.169.169-.169.169-.169.169-.169.17-.169.338-.169.169-.169.339v-2.032l.169-1.185.169-.677.169-.677.169-.508.169-.508.169-.508.169-.338.169-.339.169-.338.169-.339.169-.339.169-.169.17-.339.169-.169.169-.169.169-.338.169-.169.169-.169.169-.169.17-.169.339-.169.169-.169.169-.169.339-.169.169-.169.339-.169.508-.169.338-.169.677-.169h3.217l.847.169.508.169.508.169.339.169.508.169h.169l.169-.169v-3.047l-.339-.169-.339-.169-.677-.169-.677-.169-1.524-.169h-2.37l-1.185.169Z" transform="translate(-1549.424 -1895.689)" fill="#dc3d14" fill-rule="evenodd"/><path d="M1496.723,2060.265l.169-.677.169-.508.17-.338.169-.339.169-.338.169-.169.169-.339.169-.169.17-.169.169-.169.169-.169.169-.17.169-.169.169-.169.339-.169.169-.169.339-.17.339-.169.508-.169.846-.169h1.016l1.016.169.508.169.508.169.169.17.338.169.17.169.169.169.169.169.169.17.169.338.169.169.17.339.169.338.169.338.169.677.169,1.016.169.847-10.69,0,.192-.674Zm3.217-7.789-.508.169-.508.169-.339.169-.338.169-.339.169-.339.169-.338.169-.169.169-.17.169-.338.169-.17.169-.169.169-.17.169-.169.169-.169.169-.17.169-.169.169-.169.169-.17.338-.169.169-.169.169-.169.338-.169.339-.17.169-.169.508-.169.339-.169.338-.169.339-.169.507-.17.678-.169.677-.17,1.185v3.047l.17,1.354.169.847.17.508.169.508.169.508.169.338.169.339.169.338.17.339.169.169.169.338.169.169.169.339.17.169.169.169.169.169.17.169.169.169.169.17.17.169.339.169.169.169.339.169.169.169.338.169.339.169.339.169.508.169.677.169.847.169h4.233l1.016-.169.677-.169.508-.169.508-.169.338-.169.339-.169.338-.169.339-.169.338-.169.169-.169.169-.169v-3.048h-.508l-.169.169-.339.169-.339.169-.169.169-.339.169-.339.169-.339.169-.508.17-.508.169-.677.169-.847.169h-2.37l-.847-.169-.508-.169-.508-.169-.339-.17-.338-.169-.169-.169-.339-.169-.169-.169-.169-.169-.169-.169-.17-.169-.169-.169-.169-.338-.169-.17-.169-.338-.169-.338-.169-.339-.17-.508-.169-.677-.169-1.016-.17-.847h14.391v-2.878l-.169-1.693-.169-.847-.169-.508-.169-.508-.169-.508-.169-.339-.169-.338-.169-.338-.169-.339-.17-.169-.169-.338-.169-.169-.169-.169-.169-.17-.17-.169-.169-.169-.169-.169-.169-.169-.169-.169-.169-.169-.339-.169-.339-.169-.169-.169-.339-.169-.508-.17-.508-.169-.508-.169-.847-.169h-3.048l-.847.169Z" transform="translate(-1414.101 -1919.747)" fill="#dc3d14" fill-rule="evenodd"/><path d="M1759.714,2022.648l-.169,2.54-.169,2.369-.169,2.54-.169,2.371-.169,2.54v1.523h6.942l.677.169.677.169.339.169.338.169.338.169.341.169.338.169.169.172.169.169.169.169.169.169.169.169.169.169.169.338.169.338.169.338.169.338.169.677v2.71l-.169.677-.169.51-.169.338-.169.338-.169.169-.169.338-.169.169-.169.169-.169.169-.169.169-.169.169-.338.169-.172.169-.338.169-.338.169-.338.169-.338.172-.508.169-.846.169h-2.54l-.846-.169-.679-.169-.508-.172-.508-.169-.338-.169-.338-.169-.339-.169-.338-.169-.339-.169h-.507v3.556l.338.169.339.169.507.169.508.169.677.169,1.015.172h4.742l.846-.172.677-.169.51-.169.508-.169.338-.169.338-.169.338-.169.338-.169.169-.169.338-.169.169-.169.339-.169.169-.169.172-.169.169-.169.169-.169.169-.169.169-.169.169-.169.169-.341.169-.169.169-.169.169-.338.169-.338.169-.338.169-.339.169-.338.169-.508.169-.679.169-.846v-3.048l-.169-1.015-.169-.677-.169-.338-.169-.508-.169-.341-.169-.338-.169-.169-.169-.338-.169-.169-.169-.169-.169-.169-.169-.169-.169-.169-.169-.169-.169-.169-.169-.169-.172-.169-.338-.169-.169-.169-.338-.169-.169-.169-.339-.169-.338-.172-.338-.169-.508-.169-.679-.169-.677-.169-1.015-.169h-4.424l.192-1.015.169-2.541.169-2.371v-2.2h10.328v-3.048h-13.206Z" transform="translate(-1612.583 -1897.198)" fill="#dc3d14" fill-rule="evenodd"/><path d="M1600.5,2020.3l-.848.169-.508.169-.677.169-.338.169-.508.169-.339.169-.341.169-.338.169v3.386h.338l.341-.169.169-.169.338-.169.169-.169.338-.169.339-.169.338-.169.507-.169.508-.169.679-.169,1.522-.169h.339l1.525.169.677.169.338.169.508.169.169.169.338.169.169.169.169.169.169.169.169.338.172.339.169.338.169.51.169.846v1.353l-.169,1.015-.169.51-.169.339-.172.338-.169.169-.169.169-.169.169-.169.169-.169.169-.169.169-.338.169-.338.169-.338.169-.338.169-.508.169-.849.169-1.353.172-3.386.169v2.876l4.063.169,1.356.169.677.172.677.169.338.169.508.169.169.169.339.169.338.169.172.169.169.169.169.169.169.169.169.169.169.338.169.338.169.338.169.51.169.677v1.692l-.169.848-.169.508-.169.338-.169.169-.169.339-.169.169-.169.169-.169.169-.169.169-.172.169-.169.169-.339.169-.169.169-.338.169-.338.169-.508.172-.677.169-.848.169h-2.707l-.849-.169-.677-.169-.507-.172-.339-.169-.508-.169-.338-.169-.339-.169-.172-.169-.338-.169-.339-.169-.169-.169-.338-.169h-.169l-.169.169v3.217l.169.338.338.169.169.169.338.169.508.169.51.169.507.169.677.169,1.015.172h4.573l.846-.172.846-.169.508-.169.338-.169.51-.169.338-.169.338-.169.169-.169.339-.169.338-.169.169-.169.169-.169.169-.169.169-.169.169-.169.169-.169.169-.169.169-.169.172-.169.169-.169.169-.172.169-.169.169-.338.169-.339.169-.169.169-.338.169-.507.169-.338.169-.677.169-1.018v-1.523l-.169-1.184-.169-.679-.169-.508-.169-.338-.169-.339-.169-.338-.169-.169-.169-.169-.169-.169-.169-.338-.169-.172-.341-.169-.169-.169-.169-.169-.169-.169-.338-.169-.339-.169-.338-.169-.339-.169-.338-.169-.507-.169-.51-.169-.677-.169.339-.169.51-.169.339-.169.338-.169.338-.169.169-.169.339-.169.169-.169.169-.172.169-.169.169-.169.169-.169.169-.169.169-.169.169-.169.169-.338.169-.169.172-.338.169-.339.169-.338.169-.51.169-.677.169-1.692v-.508l-.169-1.356-.169-.677-.169-.338-.169-.338-.169-.338-.172-.338-.169-.169-.169-.341-.169-.169-.169-.169-.169-.169-.169-.169-.169-.169-.169-.169-.169-.169-.338-.169-.169-.169-.338-.169-.338-.169-.338-.169-.51-.169-.508-.169-.677-.169-1.184-.169h-2.54Z" transform="translate(-1490.787 -1895.695)" fill="#dc3d14" fill-rule="evenodd"/><path d="M1431.226,2052.479l-.846.169-.508.169-.508.169-.338.169-.338.169-.338.169-.341.169-.338.172-.169.169-.169.169-.338.169-.169.169-.169.169-.169.169-.169.169-.169.169-.169.169-.169.169-.169.169-.169.17-.169.338-.172.169-.169.338-.169.171-.169.339-.169.339-.169.338-.169.338-.169.339-.169.507-.169.507-.169.677-.169.679-.169,1.354v1.863l.169,1.354.169.846.169.679.169.507.169.338.169.508.169.338.169.338.169.339.169.169.169.338.169.169.172.172.169.338.169.169.169.169.169.169.169.169.169.169.169.169.338.169.169.169.338.169.169.17.338.169.339.169.172.169.507.169.339.169.507.169.677.169.677.172h3.9l.846-.172.508-.169.508-.169.507-.169.338-.169.508-.169.341-.169v-3.386h-.341l-.169.17-.339.169-.169.169-.338.169-.338.169-.508.169-.338.172-.677.169-.849.169h-2.03l-.848-.169-.508-.169-.507-.172-.338-.169-.339-.169-.169-.169-.338-.169-.169-.169-.169-.17-.169-.169-.169-.169-.169-.169-.169-.169-.172-.339-.169-.169-.169-.338-.169-.339-.169-.341-.169-.339-.169-.507-.169-.677-.169-1.185v-1.525l.169-1.522.169-.677.169-.51.169-.508.169-.338.169-.339.169-.169.169-.339.172-.169.169-.338.169-.169.169-.169.169-.169.169-.169.169-.17.169-.171.338-.169.169-.169.339-.169.169-.169.507-.169.339-.17.679-.169,1.184-.169h.846l1.187.169.677.169.507.17.339.169.507.169.338.169.169.169.338.169h.51v-3.386l-.339-.169-.341-.169-.339-.169-.507-.169-.677-.169-1.015-.169h-3.217Z" transform="translate(-1361.979 -1919.749)" fill="#dc3d14" fill-rule="evenodd"/><path d="M1397.62,2074.637h3.386V2054.32h-3.386Z" transform="translate(-1342.933 -1921.252)" fill="#dc3d14" fill-rule="evenodd"/><path d="M1396.625,2017.609l-.169.172-.338.169-.169.338-.169.169-.169.508v1.185l.169.507.169.338.169.172.169.169.169.169.338.169.677.169h.679l.677-.169.338-.169.169-.169.169-.169.169-.172.169-.338.169-.338V2018.8l-.169-.338-.169-.338-.169-.169-.169-.169-.338-.172-.338-.169h-1.694Z" transform="translate(-1341.431 -1893.684)" fill="#dc3d14" fill-rule="evenodd"/></g></g></g></svg>